<svg width="237" height="34" viewBox="0 0 237 34" fill="none" xmlns="http://www.w3.org/2000/svg">
<path d="M10.7359 14.472H8.18196L9.41162 7.85076H3.78357L2.55391 14.472H0L2.6012 0.283623H5.15511L4.16192 5.7225H9.78998L10.7832 0.236328H13.3371L10.7359 14.472Z" fill="#2E2D2D"/>
<path d="M13.9043 9.17515C13.9043 6.66854 14.6137 4.49299 15.9853 2.69579C17.3568 0.898597 19.154 0 21.3768 0C23.0794 0 24.4037 0.472946 25.3023 1.37154C26.2009 2.27014 26.6738 3.59439 26.6738 5.29699C26.6738 8.08738 25.9644 10.3575 24.5456 12.1074C23.1267 13.8573 21.1877 14.7086 18.7756 14.7086C17.2622 14.7086 16.0798 14.1884 15.2285 13.1952C14.3299 12.1547 13.9043 10.8305 13.9043 9.17515ZM16.5055 8.89138C16.5055 9.97916 16.742 10.8305 17.1676 11.4926C17.5933 12.1547 18.2554 12.4858 19.0594 12.4858C20.6201 12.4858 21.8025 11.7764 22.7011 10.4048C23.5997 9.03327 24.0253 7.37796 24.0253 5.43888C24.0253 3.26333 23.0794 2.17555 21.1404 2.17555C19.8161 2.17555 18.6811 2.88497 17.7825 4.30381C16.8839 5.72265 16.5055 7.28337 16.5055 8.89138Z" fill="#2E2D2D"/>
<path d="M37.6467 14.6612H36.6535L31.4511 5.48603L29.8904 14.472H27.3838L29.985 0.283623H31.1674L36.2752 9.08042L37.8359 0.236328H40.3425L37.6467 14.6612Z" fill="#2E2D2D"/>
<path d="M43.7948 14.4722H40.3423L42.9435 0.283836C43.8894 0.0946579 44.788 0.0473633 45.592 0.0473633C47.7675 0.0473633 49.4228 0.520309 50.6052 1.5135C51.7876 2.50668 52.4024 3.92552 52.4024 5.8173C52.4024 8.4658 51.5984 10.5468 50.0377 12.1075C48.477 13.6682 46.4433 14.4722 43.7948 14.4722ZM45.0717 2.3175L43.3218 12.2021C43.6056 12.2494 43.8421 12.2494 44.0786 12.2494C45.8285 12.2494 47.2 11.6345 48.1932 10.4049C49.1864 9.17522 49.7066 7.6145 49.7066 5.72271C49.7066 4.68223 49.3756 3.83093 48.6661 3.2161C47.9567 2.60127 47.0581 2.27021 45.9703 2.27021C45.6866 2.22291 45.4028 2.27021 45.0717 2.3175Z" fill="#2E2D2D"/>
<path d="M61.3886 14.4722L60.963 11.5872H55.9024L54.2471 14.4722H51.5986L60.2535 0.0473633H61.1521L64.0844 14.4722H61.3886ZM59.8752 4.35117L56.9429 9.64817H60.6792L59.8752 4.35117Z" fill="#2E2D2D"/>
<path d="M72.5024 11.2087H74.7252C74.7252 12.06 75.0563 12.4383 75.7657 12.4383C76.2859 12.4383 76.7589 12.3437 77.1372 12.1546C77.5156 11.9654 77.7521 11.6816 77.9413 11.3506C78.1304 11.0195 78.3196 10.2628 78.5088 9.12771L80.1168 0.236328H82.6234L81.0154 9.12771C80.5898 11.3506 79.9749 12.8167 79.1236 13.5734C78.2723 14.2828 77.0427 14.6612 75.4819 14.6612C74.5833 14.6612 73.8266 14.4247 73.2591 13.9518C72.6915 13.4788 72.4551 12.8167 72.4551 11.9654C72.4551 11.7289 72.4551 11.4924 72.5024 11.2087Z" fill="#2E2D2D"/>
<path d="M91.7988 14.4722L91.3731 11.5872H86.3126L84.6573 14.4722H82.0088L90.6637 0.0473633H91.5623L94.4946 14.4722H91.7988ZM90.238 4.35117L87.3058 9.64817H91.042L90.238 4.35117Z" fill="#2E2D2D"/>
<path d="M103.433 6.47921L106.981 14.4247H104.143L101.494 8.371L99.4607 10.5938L98.7512 14.4247H96.2446L98.8458 0.236328H101.352L100.17 6.71569L106.082 0.236328H109.061L103.433 6.47921Z" fill="#2E2D2D"/>
<path d="M117.338 14.4722L116.912 11.5872H111.852L110.196 14.4722H107.548L116.203 0.0473633H117.101L120.034 14.4722H117.338ZM115.777 4.35117L112.845 9.64817H116.581L115.777 4.35117Z" fill="#2E2D2D"/>
<path d="M129.256 8.18217L132.425 14.4724H129.587L126.891 8.60782C126.466 8.60782 125.898 8.56053 125.283 8.51323L124.195 14.4724H121.547L124.148 0.283974C126.04 0.189384 127.27 0.14209 127.884 0.14209C129.398 0.14209 130.627 0.425857 131.526 1.04069C132.425 1.60822 132.85 2.50682 132.85 3.59459C132.85 4.72966 132.519 5.72285 131.857 6.57415C131.195 7.37816 130.344 7.8984 129.256 8.18217ZM126.371 2.41223L125.662 6.38498C126.04 6.43227 126.371 6.43227 126.702 6.43227C129.161 6.43227 130.391 5.67556 130.391 4.11484C130.391 3.45271 130.155 2.97977 129.682 2.74329C129.209 2.45952 128.452 2.31764 127.364 2.31764C127.175 2.31764 126.891 2.36494 126.371 2.41223Z" fill="#2E2D2D"/>
<path d="M145.951 2.45917H141.458L139.283 14.472H136.729L138.905 2.45917H134.364L134.79 0.236328H146.33L145.951 2.45917Z" fill="#2E2D2D"/>
<path d="M152.619 14.4722L152.194 11.5872H147.086L145.431 14.4722H142.782L151.437 0.0473633H152.336L155.268 14.4722H152.619ZM151.059 4.35117L148.127 9.64817H151.863L151.059 4.35117Z" fill="#2E2D2D"/>
<path d="M173.146 2.97956C172.389 2.45932 171.585 2.17555 170.687 2.17555C169.22 2.17555 167.991 2.88497 167.045 4.25651C166.052 5.62806 165.579 7.18878 165.579 8.89138C165.579 9.97916 165.862 10.8778 166.383 11.4926C166.903 12.1074 167.66 12.4858 168.606 12.4858C170.072 12.4858 171.254 12.0601 172.105 11.2561L172.058 13.479C171.159 14.283 169.835 14.6613 168.085 14.6613C166.525 14.6613 165.295 14.1411 164.349 13.1479C163.403 12.1547 162.93 10.8305 162.93 9.22245C162.93 6.62124 163.64 4.3984 165.106 2.6485C166.572 0.898597 168.464 0 170.781 0C171.916 0 172.957 0.189178 173.808 0.567535L173.146 2.97956Z" fill="#2E2D2D"/>
<path d="M185.773 2.45924H179.246L178.632 5.72257H183.314L182.935 7.85083H178.253L177.449 12.2492H183.881L183.456 14.4721H174.422L177.024 0.283691H186.151L185.773 2.45924Z" fill="#2E2D2D"/>
<path d="M196.556 14.6612H195.563L190.313 5.4861L188.753 14.4721H186.246L188.847 0.283691H190.03L195.137 9.08049L196.698 0.283691H199.205L196.556 14.6612Z" fill="#2E2D2D"/>
<path d="M212.353 2.45917H207.86L205.684 14.472H203.13L205.306 2.45917H200.766L201.191 0.236328H212.731L212.353 2.45917Z" fill="#2E2D2D"/>
<path d="M224.176 2.45924H217.65L217.035 5.72257H221.717L221.339 7.85083H216.657L215.853 12.2492H222.285L221.859 14.4721H212.826L215.427 0.283691H224.555L224.176 2.45924Z" fill="#2E2D2D"/>
<path d="M232.405 8.18217L235.574 14.4724H232.736L230.041 8.60782C229.615 8.60782 229.047 8.56053 228.433 8.51323L227.345 14.4724H224.744L227.345 0.283974C229.237 0.189384 230.466 0.14209 231.081 0.14209C232.595 0.14209 233.824 0.425857 234.723 1.04069C235.621 1.60822 236.047 2.50682 236.047 3.59459C236.047 4.72966 235.716 5.72285 235.054 6.57415C234.344 7.37816 233.493 7.8984 232.405 8.18217ZM229.52 2.41223L228.811 6.38498C229.189 6.43227 229.52 6.43227 229.851 6.43227C232.311 6.43227 233.54 5.67556 233.54 4.11484C233.54 3.45271 233.304 2.97977 232.831 2.74329C232.358 2.45952 231.601 2.31764 230.514 2.31764C230.324 2.31764 230.041 2.36494 229.52 2.41223Z" fill="#2E2D2D"/>
<path d="M80.4009 33.5792H18.918L29.7957 23.2217H91.2787L80.4009 33.5792Z" fill="black"/>
<path d="M141.884 33.5792H80.4009L91.2786 23.2217H152.762L141.884 33.5792Z" fill="#E2E1E2"/>
<path d="M203.367 33.5792H141.884L152.762 23.2217H214.244L203.367 33.5792Z" fill="#ED1C24"/>
</svg>
